<svg width="880" height="600" viewBox="0 0 880 600" fill="none" xmlns="http://www.w3.org/2000/svg">
<rect x="150" y="36" width="579" height="449" fill="#9B9BFB" fill-opacity="0.2"/>
<g filter="url(#filter0_d_633_4623)">
<rect x="309" y="91" width="262" height="449" rx="15" fill="white"/>
</g>
<rect x="320" y="396" width="240" height="48" rx="10" fill="#F6F6F6"/>
<path d="M334.144 424L337.048 415.6H338.056L340.96 424H339.904L339.16 421.756H335.944L335.2 424H334.144ZM338.824 420.748L337.552 416.968L336.28 420.748H338.824ZM344.978 424.096C344.618 424.096 344.258 424.012 343.91 423.832C343.562 423.652 343.322 423.472 343.214 423.28V426.448H342.206V417.952H343.214V418.696C343.514 418.228 344.258 417.856 344.978 417.856C346.706 417.856 347.666 419.104 347.666 420.976C347.666 422.848 346.706 424.096 344.978 424.096ZM344.882 418.768C343.79 418.768 343.13 419.668 343.13 420.976C343.13 422.284 343.79 423.184 344.882 423.184C345.938 423.184 346.634 422.284 346.634 420.976C346.634 419.668 345.938 418.768 344.882 418.768ZM352.185 424.096C351.825 424.096 351.465 424.012 351.117 423.832C350.769 423.652 350.529 423.472 350.421 423.28V426.448H349.413V417.952H350.421V418.696C350.721 418.228 351.465 417.856 352.185 417.856C353.913 417.856 354.873 419.104 354.873 420.976C354.873 422.848 353.913 424.096 352.185 424.096ZM352.089 418.768C350.997 418.768 350.337 419.668 350.337 420.976C350.337 422.284 350.997 423.184 352.089 423.184C353.145 423.184 353.841 422.284 353.841 420.976C353.841 419.668 353.145 418.768 352.089 418.768ZM356.443 424V415.504H357.451V424H356.443ZM359.257 424V417.952H360.265V424H359.257ZM359.005 416.272C359.005 415.84 359.329 415.504 359.761 415.504C360.193 415.504 360.517 415.84 360.517 416.272C360.517 416.692 360.193 417.016 359.761 417.016C359.329 417.016 359.005 416.692 359.005 416.272ZM366.263 422.068L367.139 422.428C366.647 423.544 365.807 424.096 364.607 424.096C363.731 424.096 363.047 423.796 362.567 423.196C362.099 422.584 361.859 421.852 361.859 420.976C361.859 420.1 362.099 419.368 362.567 418.768C363.047 418.156 363.731 417.856 364.607 417.856C365.807 417.856 366.647 418.408 367.139 419.524L366.263 419.884C365.939 419.14 365.387 418.768 364.607 418.768C363.491 418.768 362.891 419.68 362.891 420.976C362.891 422.272 363.491 423.184 364.607 423.184C365.387 423.184 365.939 422.812 366.263 422.068ZM369.454 422.26C369.454 422.836 369.814 423.184 370.45 423.184C370.906 423.184 371.302 423.04 371.638 422.74C371.974 422.44 372.142 421.972 372.142 421.336V421.192H371.062C370.042 421.192 369.454 421.576 369.454 422.26ZM373.15 420.136V424H372.358L372.19 423.148C371.746 423.784 371.122 424.096 370.294 424.096C369.202 424.096 368.422 423.496 368.422 422.26C368.422 420.976 369.466 420.28 371.158 420.28H372.142V420.016C372.142 419.188 371.698 418.768 370.822 418.768C370.186 418.768 369.694 419.128 369.562 419.716L368.674 419.512C368.83 418.492 369.682 417.856 370.822 417.856C372.226 417.856 373.15 418.6 373.15 420.136ZM375.399 418.864H374.355V417.952H375.399V416.14L376.407 415.504V417.952H377.991V418.864H376.407V422.188C376.407 422.824 376.695 423.184 377.211 423.184C377.475 423.184 377.703 423.124 377.895 422.992L378.135 423.868C377.871 424.024 377.547 424.096 377.151 424.096C376.083 424.096 375.399 423.412 375.399 422.104V418.864ZM379.682 424V417.952H380.69V424H379.682ZM379.43 416.272C379.43 415.84 379.754 415.504 380.186 415.504C380.618 415.504 380.942 415.84 380.942 416.272C380.942 416.692 380.618 417.016 380.186 417.016C379.754 417.016 379.43 416.692 379.43 416.272ZM383.077 423.184C382.549 422.572 382.285 421.828 382.285 420.976C382.285 420.124 382.549 419.392 383.077 418.78C383.617 418.168 384.313 417.856 385.189 417.856C386.065 417.856 386.761 418.168 387.289 418.78C387.829 419.392 388.093 420.124 388.093 420.976C388.093 421.828 387.829 422.572 387.289 423.184C386.761 423.796 386.065 424.096 385.189 424.096C384.313 424.096 383.617 423.796 383.077 423.184ZM383.809 419.428C383.485 419.86 383.317 420.376 383.317 420.976C383.317 421.576 383.485 422.092 383.809 422.536C384.145 422.968 384.601 423.184 385.189 423.184C385.777 423.184 386.233 422.968 386.557 422.536C386.893 422.092 387.061 421.576 387.061 420.976C387.061 420.376 386.893 419.86 386.557 419.428C386.233 418.984 385.777 418.768 385.189 418.768C384.601 418.768 384.145 418.984 383.809 419.428ZM394.548 419.74V424H393.54V420.004C393.54 419.176 393.192 418.768 392.496 418.768C392.028 418.768 391.62 419.02 391.272 419.512C390.936 420.004 390.768 420.664 390.768 421.468V424H389.76V417.952H390.768V419.068C391.224 418.264 391.896 417.856 392.772 417.856C393.876 417.856 394.548 418.54 394.548 419.74ZM401.625 417.856C402.357 417.856 402.945 418.168 403.377 418.78L402.693 419.368C402.321 418.972 401.961 418.768 401.589 418.768C401.169 418.768 400.857 419.056 400.857 419.536C400.845 420.616 403.677 420.4 403.665 422.176C403.665 423.376 402.897 424.096 401.661 424.096C400.521 424.096 399.753 423.388 399.405 422.464L400.257 421.996C400.581 422.788 401.049 423.184 401.661 423.184C402.309 423.184 402.633 422.872 402.633 422.236C402.633 421.84 402.189 421.552 401.649 421.36C400.857 421.06 399.849 420.676 399.849 419.524C399.849 418.564 400.557 417.856 401.625 417.856ZM405.563 418.864H404.519V417.952H405.563V416.14L406.571 415.504V417.952H408.155V418.864H406.571V422.188C406.571 422.824 406.859 423.184 407.375 423.184C407.639 423.184 407.867 423.124 408.059 422.992L408.299 423.868C408.035 424.024 407.711 424.096 407.315 424.096C406.247 424.096 405.563 423.412 405.563 422.104V418.864ZM410.434 422.26C410.434 422.836 410.794 423.184 411.43 423.184C411.886 423.184 412.282 423.04 412.618 422.74C412.954 422.44 413.122 421.972 413.122 421.336V421.192H412.042C411.022 421.192 410.434 421.576 410.434 422.26ZM414.13 420.136V424H413.338L413.17 423.148C412.726 423.784 412.102 424.096 411.274 424.096C410.182 424.096 409.402 423.496 409.402 422.26C409.402 420.976 410.446 420.28 412.138 420.28H413.122V420.016C413.122 419.188 412.678 418.768 411.802 418.768C411.166 418.768 410.674 419.128 410.542 419.716L409.654 419.512C409.81 418.492 410.662 417.856 411.802 417.856C413.206 417.856 414.13 418.6 414.13 420.136ZM416.379 418.864H415.335V417.952H416.379V416.14L417.387 415.504V417.952H418.971V418.864H417.387V422.188C417.387 422.824 417.675 423.184 418.191 423.184C418.455 423.184 418.683 423.124 418.875 422.992L419.115 423.868C418.851 424.024 418.527 424.096 418.131 424.096C417.063 424.096 416.379 423.412 416.379 422.104V418.864ZM420.427 422.212V417.952H421.435V421.948C421.435 422.776 421.783 423.184 422.479 423.184C422.947 423.184 423.355 422.932 423.691 422.44C424.039 421.948 424.207 421.288 424.207 420.484V417.952H425.215V424H424.207V422.884C423.751 423.688 423.079 424.096 422.203 424.096C421.099 424.096 420.427 423.412 420.427 422.212ZM429 417.856C429.732 417.856 430.32 418.168 430.752 418.78L430.068 419.368C429.696 418.972 429.336 418.768 428.964 418.768C428.544 418.768 428.232 419.056 428.232 419.536C428.22 420.616 431.052 420.4 431.04 422.176C431.04 423.376 430.272 424.096 429.036 424.096C427.896 424.096 427.128 423.388 426.78 422.464L427.632 421.996C427.956 422.788 428.424 423.184 429.036 423.184C429.684 423.184 430.008 422.872 430.008 422.236C430.008 421.84 429.564 421.552 429.024 421.36C428.232 421.06 427.224 420.676 427.224 419.524C427.224 418.564 427.932 417.856 429 417.856Z" fill="black"/>
<rect x="530" y="411" width="18" height="18" rx="9" fill="black"/>
<path d="M536.888 416.908L539.048 415.6H539.42V424H538.436V417.112L536.888 418.012V416.908Z" fill="white"/>
<defs>
<filter id="filter0_d_633_4623" x="284" y="70" width="312" height="499" filterUnits="userSpaceOnUse" color-interpolation-filters="sRGB">
<feFlood flood-opacity="0" result="BackgroundImageFix"/>
<feColorMatrix in="SourceAlpha" type="matrix" values="0 0 0 0 0 0 0 0 0 0 0 0 0 0 0 0 0 0 127 0" result="hardAlpha"/>
<feMorphology radius="1" operator="dilate" in="SourceAlpha" result="effect1_dropShadow_633_4623"/>
<feOffset dy="4"/>
<feGaussianBlur stdDeviation="12"/>
<feComposite in2="hardAlpha" operator="out"/>
<feColorMatrix type="matrix" values="0 0 0 0 0.163638 0 0 0 0 0.163638 0 0 0 0 0.163638 0 0 0 0.1 0"/>
<feBlend mode="normal" in2="BackgroundImageFix" result="effect1_dropShadow_633_4623"/>
<feBlend mode="normal" in="SourceGraphic" in2="effect1_dropShadow_633_4623" result="shape"/>
</filter>
</defs>
</svg>
