<svg width="53" height="42" viewBox="0 0 53 42" fill="none" xmlns="http://www.w3.org/2000/svg">
<path d="M5.3 7.875C5.3 4.9793 7.67672 2.625 10.6 2.625H42.4C45.3233 2.625 47.7 4.9793 47.7 7.875V28.875H42.4V7.875H10.6V28.875H5.3V7.875ZM0 33.075C0 32.2055 0.712188 31.5 1.59 31.5H51.41C52.2878 31.5 53 32.2055 53 33.075C53 36.5531 50.1513 39.375 46.64 39.375H6.36C2.84875 39.375 0 36.5531 0 33.075ZM23.2703 17.1445L20.7031 19.6875L23.2703 22.2305C24.0488 23.0016 24.0488 24.2484 23.2703 25.0113C22.4919 25.7742 21.2331 25.7824 20.463 25.0113L16.488 21.0738C15.7095 20.3027 15.7095 19.0559 16.488 18.293L20.463 14.3555C21.2414 13.5844 22.5002 13.5844 23.2703 14.3555C24.0405 15.1266 24.0488 16.3734 23.2703 17.1363V17.1445ZM32.5453 14.3555L36.5203 18.293C37.2988 19.0641 37.2988 20.3109 36.5203 21.0738L32.5453 25.0113C31.7669 25.7824 30.5081 25.7824 29.738 25.0113C28.9678 24.2402 28.9595 22.9934 29.738 22.2305L32.3052 19.6875L29.738 17.1445C28.9595 16.3734 28.9595 15.1266 29.738 14.3637C30.5164 13.6008 31.7752 13.5926 32.5453 14.3637V14.3555Z" fill="black"/>
</svg>
